<?xml version="1.0" encoding="UTF-8"?>
<svg xmlns="http://www.w3.org/2000/svg" viewBox="0 0 111.45 93.07">
  <g>
    <path fill="#fff" d="M75.99,27.97h-2.36c0,3.08-.78,5.97-2.14,8.5.46.84.84,1.73,1.16,2.65,2.11-3.2,3.34-7.03,3.34-11.14Z"/>
    <path fill="#fff" d="M39.96,36.47c-1.37-2.53-2.14-5.42-2.14-8.5h-2.36c0,4.12,1.23,7.95,3.34,11.14.32-.92.71-1.8,1.16-2.65Z"/>
    <path fill="#fff" d="M73.44,47.55c5.33-4.83,8.68-11.81,8.68-19.57h-3.46c0,5.52-1.95,10.59-5.2,14.55.11.8.17,1.62.17,2.45,0,.88-.07,1.74-.19,2.58Z"/>
    <path fill="#fff" d="M38.01,47.54c-.12-.84-.19-1.7-.19-2.58,0-.83.06-1.65.17-2.45-3.25-3.96-5.2-9.02-5.2-14.55h-3.46c0,7.76,3.35,14.74,8.68,19.57Z"/>
    <path fill="#fff" d="M83.7,27.97c0,8.98-4.23,16.97-10.81,22.09-2.2,7.41-9.05,12.81-17.16,12.81s-14.97-5.4-17.16-12.81c-6.58-5.12-10.81-13.11-10.81-22.09H9.08l46.64,65.1L102.36,27.97h-18.67Z"/>
    <path fill="#ed1c24" d="M27.75,27.97C27.75,12.52,40.27,0,55.72,0s27.97,12.52,27.97,27.97h-1.57c0-14.58-11.82-26.4-26.4-26.4s-26.4,11.82-26.4,26.4h-1.57Z"/>
    <path fill="#ed1c24" d="M32.79,27.97c0-12.67,10.27-22.94,22.94-22.94s22.94,10.27,22.94,22.94h-2.67c0-11.19-9.07-20.26-20.26-20.26s-20.26,9.07-20.26,20.26h-2.67Z"/>
    <path fill="#ed1c24" d="M55.72,48.24c-7.07,0-13.3-3.63-16.93-9.12-.38,1.09-.65,2.23-.81,3.4,4.21,5.12,10.59,8.39,17.74,8.39s13.53-3.27,17.74-8.39c-.16-1.17-.43-2.31-.81-3.4-3.62,5.49-9.85,9.12-16.93,9.12Z"/>
    <path fill="#ed1c24" d="M39.96,36.47c3.03,5.6,8.95,9.41,15.76,9.41s12.74-3.81,15.76-9.41c-2.15-3.98-5.76-7.05-10.11-8.5h12.25c0-9.89-8.02-17.9-17.9-17.9s-17.9,8.02-17.9,17.9h12.25c-4.35,1.45-7.96,4.52-10.11,8.5Z"/>
    <path fill="#ed1c24" d="M38,47.54c.12.86.31,1.7.55,2.52,4.74,3.69,10.7,5.89,17.17,5.89s12.43-2.2,17.17-5.89c.24-.82.43-1.66.55-2.52-4.68,4.24-10.9,6.83-17.72,6.83s-13.04-2.59-17.72-6.83Z"/>
  </g>
</svg>
